<?xml version="1.0" encoding="UTF-8"?>
<svg xmlns="http://www.w3.org/2000/svg" xmlns:xlink="http://www.w3.org/1999/xlink" width="23pt" height="23pt" viewBox="0 0 23 23" version="1.1">
<g id="surface1">
<path style=" stroke:none;fill-rule:nonzero;fill:rgb(1.176453%,78.822327%,53.33252%);fill-opacity:1;" d="M 9.375 16.769531 C 9.375 16.355469 9.039063 16.019531 8.625 16.019531 C 8.210938 16.019531 7.875 16.355469 7.875 16.769531 Z M 15.125 16.769531 C 15.125 16.355469 14.789063 16.019531 14.375 16.019531 C 13.960938 16.019531 13.625 16.355469 13.625 16.769531 Z M 18.621094 13.742188 L 17.929688 14.03125 Z M 4.378906 13.742188 L 3.6875 13.449219 Z M 7.875 16.769531 L 7.875 17.730469 L 9.375 17.730469 L 9.375 16.769531 Z M 7.875 17.730469 C 7.875 18.75 8.300781 19.570313 9.007813 20.117188 C 9.695313 20.644531 10.589844 20.875 11.5 20.875 L 11.5 19.375 C 10.824219 19.375 10.28125 19.203125 9.925781 18.929688 C 9.59375 18.671875 9.375 18.296875 9.375 17.730469 Z M 11.5 20.875 C 12.410156 20.875 13.304688 20.644531 13.992188 20.117188 C 14.699219 19.570313 15.125 18.75 15.125 17.730469 L 13.625 17.730469 C 13.625 18.296875 13.40625 18.671875 13.074219 18.929688 C 12.71875 19.203125 12.175781 19.375 11.5 19.375 Z M 15.125 17.730469 L 15.125 16.769531 L 13.625 16.769531 L 13.625 17.730469 Z M 6.5 8.144531 C 6.5 6.785156 7.039063 5.808594 7.890625 5.152344 C 8.765625 4.480469 10.027344 4.105469 11.5 4.105469 L 11.5 2.605469 C 9.796875 2.605469 8.183594 3.035156 6.976563 3.964844 C 5.746094 4.910156 5 6.332031 5 8.144531 Z M 11.5 4.105469 C 12.972656 4.105469 14.234375 4.480469 15.109375 5.152344 C 15.960938 5.808594 16.5 6.785156 16.5 8.144531 L 18 8.144531 C 18 6.332031 17.253906 4.910156 16.023438 3.964844 C 14.816406 3.035156 13.203125 2.605469 11.5 2.605469 Z M 16.5 8.144531 C 16.5 10.15625 17.222656 12.351563 17.929688 14.03125 L 19.3125 13.449219 C 18.628906 11.824219 18 9.851563 18 8.144531 Z M 17.929688 14.03125 C 18.328125 14.976563 17.625 16.019531 16.738281 16.019531 L 16.738281 17.519531 C 18.835938 17.519531 20.070313 15.25 19.3125 13.449219 Z M 16.738281 16.019531 L 6.261719 16.019531 L 6.261719 17.519531 L 16.738281 17.519531 Z M 6.261719 16.019531 C 5.375 16.019531 4.671875 14.976563 5.070313 14.03125 L 3.6875 13.449219 C 2.929688 15.25 4.164063 17.519531 6.261719 17.519531 Z M 5.070313 14.03125 C 5.777344 12.351563 6.5 10.15625 6.5 8.144531 L 5 8.144531 C 5 9.851563 4.371094 11.824219 3.6875 13.449219 Z M 5.070313 14.03125 "/>
</g>
</svg>
