<?xml version="1.0" encoding="UTF-8"?>
<svg xmlns="http://www.w3.org/2000/svg" xmlns:xlink="http://www.w3.org/1999/xlink" width="202pt" height="202pt" viewBox="0 0 202 202" version="1.1">
<g id="surface1">
<path style=" stroke:none;fill-rule:nonzero;fill:rgb(1.176453%,78.822327%,53.33252%);fill-opacity:1;" d="M 75.214844 174.359375 C 77.125 174.652344 78.914063 173.34375 79.210938 171.433594 C 79.503906 169.523438 78.195313 167.734375 76.285156 167.441406 Z M 34.558594 125.714844 C 34.265625 123.804688 32.476563 122.496094 30.566406 122.789063 C 28.65625 123.085938 27.347656 124.875 27.640625 126.785156 Z M 174.359375 126.785156 C 174.652344 124.875 173.34375 123.085938 171.433594 122.789063 C 169.523438 122.496094 167.734375 123.804688 167.441406 125.714844 Z M 125.714844 167.4375 C 123.804688 167.734375 122.496094 169.519531 122.789063 171.429688 C 123.085938 173.34375 124.875 174.652344 126.785156 174.355469 Z M 126.785156 27.640625 C 124.875 27.347656 123.085938 28.65625 122.789063 30.566406 C 122.496094 32.476563 123.804688 34.265625 125.714844 34.558594 Z M 167.441406 76.285156 C 167.734375 78.195313 169.523438 79.503906 171.433594 79.210938 C 173.34375 78.914063 174.652344 77.125 174.359375 75.214844 Z M 27.640625 75.214844 C 27.347656 77.125 28.65625 78.914063 30.566406 79.210938 C 32.476563 79.503906 34.265625 78.195313 34.558594 76.285156 Z M 76.285156 34.558594 C 78.195313 34.265625 79.503906 32.476563 79.210938 30.566406 C 78.914063 28.65625 77.125 27.347656 75.214844 27.640625 Z M 108.707031 92.582031 C 108.707031 90.648438 107.140625 89.082031 105.207031 89.082031 C 103.273438 89.082031 101.707031 90.648438 101.707031 92.582031 Z M 105.207031 105.207031 L 106.773438 108.339844 C 107.960938 107.746094 108.707031 106.535156 108.707031 105.207031 Z M 95.226563 106.285156 C 93.496094 107.152344 92.796875 109.253906 93.660156 110.984375 C 94.527344 112.710938 96.628906 113.410156 98.355469 112.546875 Z M 129.75 67.332031 C 129.75 65.398438 128.183594 63.832031 126.25 63.832031 C 124.316406 63.832031 122.75 65.398438 122.75 67.332031 Z M 122.75 84.167969 C 122.75 86.101563 124.316406 87.667969 126.25 87.667969 C 128.183594 87.667969 129.75 86.101563 129.75 84.167969 Z M 79.25 67.332031 C 79.25 65.398438 77.683594 63.832031 75.75 63.832031 C 73.816406 63.832031 72.25 65.398438 72.25 67.332031 Z M 72.25 84.167969 C 72.25 86.101563 73.816406 87.667969 75.75 87.667969 C 77.683594 87.667969 79.25 86.101563 79.25 84.167969 Z M 78.226563 132.191406 C 76.859375 130.824219 74.640625 130.824219 73.273438 132.191406 C 71.910156 133.558594 71.910156 135.773438 73.273438 137.140625 Z M 128.726563 137.140625 C 130.089844 135.773438 130.089844 133.558594 128.726563 132.191406 C 127.359375 130.824219 125.140625 130.824219 123.773438 132.191406 Z M 76.285156 167.441406 C 62.972656 165.386719 53.675781 161.300781 47.1875 154.8125 C 40.699219 148.324219 36.613281 139.027344 34.558594 125.714844 L 27.640625 126.785156 C 29.828125 140.945313 34.328125 151.851563 42.238281 159.761719 C 50.148438 167.671875 61.054688 172.171875 75.214844 174.359375 Z M 167.441406 125.714844 C 165.386719 139.027344 161.300781 148.324219 154.8125 154.8125 C 148.324219 161.296875 139.027344 165.386719 125.714844 167.4375 L 126.785156 174.355469 C 140.945313 172.171875 151.851563 167.671875 159.761719 159.761719 C 167.671875 151.851563 172.171875 140.945313 174.359375 126.785156 Z M 125.714844 34.558594 C 139.027344 36.613281 148.324219 40.699219 154.8125 47.1875 C 161.300781 53.675781 165.386719 62.972656 167.441406 76.285156 L 174.359375 75.214844 C 172.171875 61.054688 167.671875 50.148438 159.761719 42.238281 C 151.851563 34.328125 140.945313 29.828125 126.785156 27.640625 Z M 34.558594 76.285156 C 36.613281 62.972656 40.699219 53.675781 47.1875 47.1875 C 53.675781 40.699219 62.972656 36.613281 76.285156 34.558594 L 75.214844 27.640625 C 61.054688 29.828125 50.148438 34.328125 42.238281 42.238281 C 34.328125 50.148438 29.828125 61.054688 27.640625 75.214844 Z M 101.707031 92.582031 L 101.707031 105.207031 L 108.707031 105.207031 L 108.707031 92.582031 Z M 103.640625 102.078125 L 95.226563 106.285156 L 98.355469 112.546875 L 106.773438 108.339844 Z M 122.75 67.332031 L 122.75 84.167969 L 129.75 84.167969 L 129.75 67.332031 Z M 72.25 67.332031 L 72.25 84.167969 L 79.25 84.167969 L 79.25 67.332031 Z M 75.75 134.667969 C 73.273438 137.140625 73.277344 137.144531 73.277344 137.144531 C 73.277344 137.144531 73.28125 137.144531 73.28125 137.148438 C 73.28125 137.148438 73.285156 137.152344 73.285156 137.152344 C 73.289063 137.15625 73.296875 137.164063 73.300781 137.167969 C 73.3125 137.179688 73.324219 137.191406 73.339844 137.207031 C 73.371094 137.234375 73.40625 137.269531 73.453125 137.316406 C 73.550781 137.402344 73.675781 137.519531 73.839844 137.664063 C 74.164063 137.945313 74.628906 138.332031 75.226563 138.78125 C 76.429688 139.683594 78.183594 140.847656 80.496094 142.003906 C 85.132813 144.324219 91.980469 146.582031 101 146.582031 L 101 139.582031 C 93.1875 139.582031 87.40625 137.632813 83.628906 135.746094 C 81.730469 134.796875 80.332031 133.859375 79.429688 133.183594 C 78.976563 132.84375 78.648438 132.570313 78.449219 132.394531 C 78.347656 132.304688 78.28125 132.242188 78.242188 132.207031 C 78.222656 132.191406 78.210938 132.179688 78.210938 132.175781 C 78.207031 132.175781 78.207031 132.175781 78.210938 132.179688 C 78.210938 132.179688 78.214844 132.183594 78.214844 132.183594 C 78.21875 132.183594 78.21875 132.1875 78.21875 132.1875 C 78.222656 132.1875 78.222656 132.1875 78.222656 132.191406 C 78.222656 132.191406 78.226563 132.191406 75.75 134.667969 Z M 101 146.582031 C 110.019531 146.582031 116.867188 144.324219 121.503906 142.003906 C 123.816406 140.847656 125.570313 139.683594 126.773438 138.78125 C 127.371094 138.332031 127.835938 137.945313 128.160156 137.664063 C 128.324219 137.519531 128.449219 137.402344 128.546875 137.316406 C 128.59375 137.269531 128.628906 137.234375 128.660156 137.207031 C 128.675781 137.191406 128.6875 137.179688 128.699219 137.167969 C 128.703125 137.164063 128.710938 137.15625 128.714844 137.152344 C 128.714844 137.152344 128.71875 137.148438 128.71875 137.148438 C 128.71875 137.144531 128.722656 137.144531 128.722656 137.144531 C 128.722656 137.144531 128.726563 137.140625 126.25 134.667969 C 123.773438 132.191406 123.777344 132.191406 123.777344 132.191406 C 123.777344 132.1875 123.777344 132.1875 123.78125 132.1875 C 123.78125 132.1875 123.78125 132.183594 123.785156 132.183594 C 123.785156 132.179688 123.789063 132.179688 123.789063 132.179688 C 123.792969 132.175781 123.792969 132.175781 123.789063 132.175781 C 123.789063 132.179688 123.777344 132.191406 123.757813 132.207031 C 123.71875 132.242188 123.652344 132.304688 123.550781 132.394531 C 123.351563 132.570313 123.023438 132.84375 122.570313 133.183594 C 121.667969 133.859375 120.269531 134.796875 118.371094 135.746094 C 114.59375 137.632813 108.8125 139.582031 101 139.582031 Z M 101 146.582031 "/>
</g>
</svg>
