<?xml version="1.0" encoding="UTF-8" standalone="no"?>
<svg
   xmlns:dc="http://purl.org/dc/elements/1.1/"
   xmlns:cc="http://creativecommons.org/ns#"
   xmlns:rdf="http://www.w3.org/1999/02/22-rdf-syntax-ns#"
   xmlns:svg="http://www.w3.org/2000/svg"
   xmlns="http://www.w3.org/2000/svg"
   viewBox="0 0 33.333332 32"
   height="32"
   width="33.333332"
   xml:space="preserve"
   id="svg2"
   version="1.1"><metadata
     id="metadata8"><rdf:RDF><cc:Work
         rdf:about=""><dc:format>image/svg+xml</dc:format><dc:type
           rdf:resource="http://purl.org/dc/dcmitype/StillImage" /></cc:Work></rdf:RDF></metadata><defs
     id="defs6" /><g
     transform="matrix(1.3333333,0,0,-1.3333333,0,32)"
     id="g10"><g
       transform="translate(4.111816,1.5)"
       id="g12"><path
         id="path14"
         style="fill:#344d67;fill-opacity:1;fill-rule:nonzero;stroke:none"
         d="m 0,18.25 c -0.414214,0 -0.75,-0.335787 -0.75,-0.75 0,-0.414213 0.335786,-0.75 0.75,-0.75 z m 15.999979,-1.5 c 0.414213,0 0.75,0.335787 0.75,0.75 0,0.414213 -0.335787,0.75 -0.75,0.75 z M 0,11.25 c -0.414214,0 -0.75,-0.335787 -0.75,-0.75 0,-0.414213 0.335786,-0.75 0.75,-0.75 z m 15.999979,-8.5 c 0.414213,0 0.75,0.335787 0.75,0.75 0,0.414213 -0.335787,0.75 -0.75,0.75 z M 0,16.75 h 5.99998 v 1.5 H 0 Z m 5.24998,0.75 c 0,-1.518776 1.231179,-2.75 2.75,-2.75 v 1.5 c -0.690379,0 -1.25,0.559635 -1.25,1.25 z m 2.75,-2.75 c 1.518821,0 2.75,1.231224 2.75,2.75 h -1.5 c 0,-0.690365 -0.559621,-1.25 -1.25,-1.25 z m -1.25,2.75 c 0,0.690363 0.559621,1.25 1.25,1.25 v 1.5 c -1.518821,0 -2.75,-1.231224 -2.75,-2.75 z m 1.25,1.25 c 0.690379,0 1.25,-0.559637 1.25,-1.25 h 1.5 c 0,1.518776 -1.231179,2.75 -2.75,2.75 z m 2,-2 h 5.999999 v 1.5 H 9.99998 Z M 0,9.75 h 11.999979 v 1.5 H 0 Z m 11.249979,0.75 c 0,-1.518813 1.231187,-2.75 2.75,-2.75 v 1.5 c -0.690387,0 -1.25,0.559613 -1.25,1.25 z m 2.75,-2.75 c 1.518813,0 2.75,1.231187 2.75,2.75 h -1.5 c 0,-0.690387 -0.559613,-1.25 -1.25,-1.25 z m 2.75,2.75 c 0,1.518814 -1.231187,2.75 -2.75,2.75 v -1.5 c 0.690387,0 1.25,-0.559613 1.25,-1.25 z m -2.75,2.75 c -1.518813,0 -2.75,-1.231186 -2.75,-2.75 h 1.5 c 0,0.690387 0.559613,1.25 1.25,1.25 z M 4,2.75 h 11.999979 v 1.5 H 4 Z M 4.75,3.5 C 4.75,5.018821 3.518776,6.25 2,6.25 V 4.75 C 2.690364,4.75 3.25,4.190379 3.25,3.5 Z M 2,6.25 C 0.481224,6.25 -0.75,5.018821 -0.75,3.5 h 1.5 C 0.75,4.190379 1.309636,4.75 2,4.75 Z M -0.75,3.5 C -0.75,1.981178 0.481224,0.75 2,0.75 v 1.5 C 1.309636,2.25 0.75,2.809622 0.75,3.5 Z M 2,0.75 c 1.518776,0 2.75,1.231178 2.75,2.75 H 3.25 C 3.25,2.809622 2.690364,2.25 2,2.25 Z" /></g></g></svg>