<?xml version="1.0" encoding="UTF-8" standalone="no"?>
<svg
   xmlns:dc="http://purl.org/dc/elements/1.1/"
   xmlns:cc="http://creativecommons.org/ns#"
   xmlns:rdf="http://www.w3.org/1999/02/22-rdf-syntax-ns#"
   xmlns:svg="http://www.w3.org/2000/svg"
   xmlns="http://www.w3.org/2000/svg"
   viewBox="0 0 472 69.333336"
   height="69.333336"
   width="472"
   xml:space="preserve"
   id="svg2"
   version="1.1"><metadata
     id="metadata8"><rdf:RDF><cc:Work
         rdf:about=""><dc:format>image/svg+xml</dc:format><dc:type
           rdf:resource="http://purl.org/dc/dcmitype/StillImage" /></cc:Work></rdf:RDF></metadata><defs
     id="defs6" /><g
     transform="matrix(1.3333333,0,0,-1.3333333,0,69.333333)"
     id="g10"><g
       id="g12"><path
         id="path14"
         style="fill:#344d67;fill-opacity:1;fill-rule:nonzero;stroke:none"
         d="M 328,52 H 26 C 11.640596,52 0,40.359406 0,26 0,11.640594 11.640596,0 26,0 h 302 c 14.35941,0 26,11.640594 26,26 0,14.359406 -11.64059,26 -26,26 z" /></g><g
       transform="translate(51.40799,20.830994)"
       id="g16"><path
         id="path18"
         style="fill:#ffffff;fill-opacity:1;fill-rule:nonzero;stroke:none"
         d="M 0.337997,1.508018 C 0.112697,1.785318 0,2.032318 0,2.249018 c 0,0.2253 0.186298,0.520001 0.558998,0.884 0.2167,0.208001 0.446299,0.311999 0.688999,0.311999 0.2427,0 0.5807,-0.2167 1.014,-0.65 0.1213,-0.1473 0.294701,-0.290299 0.520001,-0.428999 0.2253,-0.13 0.4333,-0.194999 0.624,-0.194999 0.806,0 1.209,0.329299 1.209,0.987999 C 4.614998,3.358317 4.5023,3.523017 4.277,3.653017 4.0603,3.791717 3.7873,3.891319 3.458,3.952019 3.1287,4.012719 2.773298,4.108018 2.391998,4.238018 2.010698,4.376718 1.6553,4.537017 1.326,4.719017 c -0.3293,0.182 -0.606701,0.468002 -0.832001,0.858002 -0.2167,0.398699 -0.325,0.875298 -0.325,1.429998 0,0.7627 0.281701,1.4257 0.845001,1.989 0.572,0.572001 1.3477,0.858 2.327,0.858 0.52,0 0.9923,-0.069299 1.416999,-0.208 0.4333,-0.13 0.7323,-0.264299 0.897,-0.403 L 5.98,8.996017 C 6.2487,8.744718 6.382999,8.532318 6.382999,8.359018 c 0,-0.173299 -0.104,-0.4117 -0.312,-0.715 -0.2947,-0.4333 -0.598,-0.649999 -0.91,-0.649999 -0.182,0 -0.407298,0.086698 -0.675998,0.259998 -0.026,0.0173 -0.078002,0.060701 -0.156002,0.130001 -0.069301,0.0693 -0.1343,0.125701 -0.195,0.169001 -0.182,0.1127 -0.416,0.168998 -0.702,0.168998 -0.2773,0 -0.511299,-0.0693 -0.701999,-0.208 -0.182,-0.13 -0.272999,-0.3163 -0.272999,-0.559 0,-0.234 0.108297,-0.424699 0.324997,-0.571999 0.2253,-0.147299 0.5027,-0.246999 0.832,-0.298999 0.3293,-0.052 0.689003,-0.134302 1.079003,-0.247002 0.39,-0.104 0.749698,-0.233999 1.078998,-0.389999 C 6.101299,5.291018 6.3743,5.018017 6.591,4.628017 6.816299,4.246717 6.929001,3.774318 6.929001,3.211018 6.929001,2.647717 6.816299,2.149319 6.591,1.716019 6.3657,1.291319 6.071001,0.962018 5.707001,0.728018 5.005001,0.268718 4.2553,0.039019 3.458,0.039019 c -0.4073,0 -0.793001,0.0477 -1.157001,0.142999 -0.364,0.104 -0.658699,0.229699 -0.883999,0.376999 -0.4593,0.2773 -0.780002,0.546 -0.962002,0.806 z m 14.040104,2.899001 c 0,-0.5287 -0.1343,-0.923001 -0.403,-1.183001 -0.26,-0.2513 -0.550302,-0.377001 -0.871002,-0.377001 h -3.081001 c 0,-0.2427 0.143001,-0.4463 0.429001,-0.611 0.286,-0.164699 0.572001,-0.247 0.858002,-0.247 0.502699,0 0.896998,0.052001 1.182998,0.156001 l 0.142998,0.052 c 0.208,0.0953 0.381305,0.142999 0.520004,0.142999 0.2773,0 0.515697,-0.194998 0.714997,-0.584999 0.1127,-0.234 0.168998,-0.4333 0.168998,-0.597999 0,-0.771301 -0.922997,-1.157002 -2.768997,-1.157002 -0.6413,0 -1.2133,0.108301 -1.716,0.325001 -0.494,0.2253 -0.879701,0.52 -1.157001,0.884001 -0.546,0.701999 -0.819,1.486298 -0.819,2.352998 0,1.092 0.351001,1.963001 1.053001,2.613001 0.7107,0.6587 1.594701,0.987999 2.652001,0.987999 1.2047,0 2.0887,-0.4247 2.652,-1.274 0.2947,-0.4507 0.442001,-0.944698 0.442001,-1.481998 z M 11.635098,4.030018 c 0.329299,0 0.494003,0.1387 0.494003,0.416 0,0.1993 -0.078,0.359699 -0.234001,0.480999 -0.1473,0.1213 -0.364002,0.182001 -0.650002,0.182001 -0.2773,0 -0.554701,-0.116999 -0.832001,-0.351 -0.277299,-0.225299 -0.415996,-0.468 -0.415996,-0.728 z m 8.0372,2.261999 c 0.052,0.4853 0.394301,0.728001 1.027001,0.728001 0.337999,0 0.589298,-0.025999 0.753998,-0.077999 0.1646,-0.052001 0.277305,-0.143001 0.338005,-0.273001 0.0693,-0.13 0.108297,-0.247 0.116996,-0.351 0.0173,-0.0953 0.026,-0.2427 0.026,-0.441999 V 1.326017 c 0,-0.199299 -0.0087,-0.350999 -0.026,-0.455 -0.0087,-0.095299 -0.0434,-0.207999 -0.103996,-0.337999 -0.121401,-0.2253 -0.420402,-0.338001 -0.897003,-0.338001 -0.468,0 -0.784397,0.0563 -0.948997,0.169 -0.156001,0.1213 -0.247004,0.294701 -0.273003,0.520001 -0.3207,-0.4593 -0.858,-0.689001 -1.612,-0.689001 -0.745399,0 -1.438701,0.3423 -2.080001,1.027 -0.641401,0.6847 -0.961998,1.4777 -0.961998,2.379 0,0.91 0.320597,1.703001 0.961998,2.379002 0.649999,0.6847 1.360603,1.026998 2.132003,1.026998 0.2946,0 0.5633,-0.052 0.806,-0.156 0.2426,-0.104 0.411596,-0.2037 0.506996,-0.299 0.0953,-0.0867 0.173302,-0.1733 0.234001,-0.26 z M 17.306301,3.588018 c 0,-0.286 0.112597,-0.546 0.337998,-0.78 0.225299,-0.2253 0.4983,-0.338 0.819,-0.338 0.3206,0 0.584999,0.117 0.792999,0.351 0.2166,0.234 0.325005,0.489701 0.325005,0.767 0,0.286001 -0.104004,0.5503 -0.312004,0.793 -0.1994,0.2427 -0.472401,0.364 -0.819001,0.364 -0.337999,0 -0.6154,-0.1213 -0.832,-0.364 -0.208001,-0.2427 -0.311997,-0.506999 -0.311997,-0.793 z m 10.3181,3.354001 c 0.1647,-0.052001 0.299,-0.143001 0.403,-0.273001 0.112699,-0.1213 0.168999,-0.3207 0.168999,-0.598 0,-0.2773 -0.0823,-0.5807 -0.247002,-0.91 -0.1647,-0.3293 -0.402996,-0.494001 -0.714996,-0.494001 -0.156,0 -0.307701,0.0347 -0.455002,0.104 -0.138701,0.0693 -0.324999,0.104 -0.558998,0.104 -0.233999,0 -0.455002,-0.0823 -0.663002,-0.247 -0.199301,-0.1647 -0.299004,-0.363999 -0.299004,-0.597999 v -2.73 c 0,-0.1993 -0.0087,-0.351 -0.02599,-0.455 -0.0087,-0.095299 -0.04771,-0.208001 -0.117005,-0.338001 -0.129999,-0.2253 -0.468,-0.337999 -1.014,-0.337999 -0.416,0 -0.715003,0.073701 -0.897003,0.221 -0.1387,0.1213 -0.216694,0.307701 -0.233993,0.559 0,0.086701 0,0.2123 0,0.376999 v 4.563 c 0,0.1993 0.0043,0.346702 0.013,0.442001 0.0173,0.104001 0.0563,0.2167 0.116997,0.338 0.1213,0.234 0.459299,0.351 1.014,0.351 0.52,0 0.844999,-0.0997 0.974998,-0.299 0.0953,-0.1387 0.143006,-0.281701 0.143006,-0.429001 0.0433,0.0607 0.104,0.134301 0.181999,0.221001 0.0867,0.0867 0.264297,0.2037 0.532997,0.350999 0.2687,0.1473 0.502703,0.221001 0.702004,0.221001 0.208,0 0.381296,-0.012999 0.519996,-0.038999 0.138701,-0.0173 0.290303,-0.052 0.455002,-0.104 z m 3.038895,-3.354001 c 0,-0.363999 0.121305,-0.649999 0.364006,-0.857999 0.242599,-0.1993 0.498298,-0.299002 0.766998,-0.299002 0.277302,0 0.532997,0.078001 0.766998,0.234001 0.2426,0.1647 0.4376,0.247 0.584999,0.247 0.259999,0 0.576306,-0.229699 0.949006,-0.688999 0.199298,-0.2513 0.298996,-0.476701 0.298996,-0.676001 0,-0.3293 -0.238396,-0.637 -0.714997,-0.923 -0.493999,-0.3467 -1.1007,-0.520001 -1.819999,-0.520001 -0.806,0 -1.581704,0.290301 -2.327004,0.871001 -0.3554,0.277299 -0.645702,0.645699 -0.871002,1.104999 -0.225401,0.468 -0.337998,0.979301 -0.337998,1.534 0,0.563301 0.112597,1.070301 0.337998,1.521 0.2253,0.4593 0.515602,0.8277 0.871002,1.105 0.719299,0.572 1.486303,0.858002 2.301003,0.858002 0.329299,0 0.649997,-0.047702 0.961998,-0.143002 0.312,-0.0867 0.541603,-0.1733 0.689003,-0.26 l 0.208,-0.129999 c 0.155998,-0.104 0.277298,-0.1863 0.363998,-0.247 0.2253,-0.1733 0.337998,-0.3727 0.337998,-0.598 0,-0.2167 -0.091,-0.463701 -0.273003,-0.741001 -0.312,-0.4767 -0.610996,-0.715 -0.896996,-0.715 -0.164699,0 -0.398704,0.095301 -0.702003,0.286001 -0.155998,0.1473 -0.381394,0.220999 -0.675995,0.220999 -0.285999,0 -0.554699,-0.103998 -0.806,-0.311998 -0.2514,-0.208 -0.377006,-0.4983 -0.377006,-0.871001 z m 8.290603,3.406001 c 0.8667,0 1.585999,-0.329301 2.157998,-0.988001 0.580699,-0.6587 0.871002,-1.4647 0.871002,-2.418 v -2.288 c 0,-0.1993 -0.0087,-0.351 -0.026,-0.455 -0.0087,-0.095299 -0.0477,-0.208001 -0.116997,-0.338001 -0.112702,-0.2253 -0.446302,-0.337999 -1.001,-0.337999 -0.528702,0 -0.857998,0.112699 -0.987999,0.337999 -0.0693,0.13 -0.112706,0.247 -0.130005,0.351 -0.0087,0.104 -0.013,0.26 -0.013,0.468 v 2.275 c 0,0.3553 -0.0997,0.632701 -0.298996,0.832001 -0.199299,0.1993 -0.455005,0.299 -0.767006,0.299 -0.303299,0 -0.571998,-0.0953 -0.805999,-0.286 -0.234002,-0.182 -0.368302,-0.39 -0.403,-0.624 v -2.522 c 0,-0.1993 -0.0087,-0.351 -0.02599,-0.455 -0.0087,-0.095299 -0.0477,-0.208001 -0.117004,-0.338001 -0.112701,-0.2253 -0.446301,-0.337999 -1.001,-0.337999 -0.546001,0 -0.879699,0.116999 -1.000999,0.351 -0.0607,0.13 -0.0997,0.242699 -0.116997,0.337999 -0.0087,0.0953 -0.013,0.247 -0.013,0.455 v 7.774 c 0,0.1993 0.0043,0.346702 0.013,0.442001 0.0173,0.104 0.0563,0.2167 0.116997,0.338 0.1213,0.234 0.459301,0.351 1.014,0.351 0.546001,0 0.875298,-0.117 0.987999,-0.351 0.0693,-0.13 0.108303,-0.247 0.117004,-0.351 0.0173,-0.0953 0.02599,-0.2427 0.02599,-0.442 V 6.201017 c 0.4333,0.5287 0.940303,0.793002 1.521003,0.793002 z" /></g><g
       transform="translate(312.5,15.5)"
       id="g20"><path
         id="path22"
         style="fill:#ffffff;fill-opacity:1;fill-rule:nonzero;stroke:none"
         d="m 9.5,0.75 c 0.414213,0 0.75,0.335787 0.75,0.75 0,0.414213 -0.335787,0.75 -0.75,0.75 z m -6,1.5 C 3.085786,2.25 2.75,1.914213 2.75,1.5 2.75,1.085787 3.085786,0.75 3.5,0.75 Z m 10.25,8.25 c 0,0.414213 -0.335787,0.75 -0.75,0.75 -0.414213,0 -0.75,-0.335787 -0.75,-0.75 z m -13,0 c 0,0.414213 -0.335786,0.75 -0.75,0.75 -0.414214,0 -0.75,-0.335787 -0.75,-0.75 z M 6.5,0.75 h 3 v 1.5 h -3 z m 0,1.5 h -3 v -1.5 h 3 z M 7.25,1.5 v 3 h -1.5 v -3 z M 6.5,3.75 c 4.388911,0 7.25,2.997229 7.25,6.75 h -1.5 C 12.25,7.625371 10.111089,5.25 6.5,5.25 Z m 0,1.5 c -3.611089,0 -5.75,2.375371 -5.75,5.25 h -1.5 c 0,-3.752771 2.861089,-6.75 7.25,-6.75 z m 0,1.5 c 0.965792,0 1.754847,0.309997 2.371466,0.835362 0.602538,0.513371 1.001038,1.197897 1.268469,1.896512 C 10.669711,10.865825 10.75,12.4806 10.75,13.5 H 9.25 C 9.25,12.5194 9.166289,11.134175 8.739065,10.018126 8.527995,9.466741 8.249746,9.026267 7.89866,8.727138 7.561653,8.440003 7.120208,8.25 6.5,8.25 Z m 4.25,6.75 c 0,1.0194 -0.08029,2.634174 -0.610065,4.018126 C 9.872504,18.216742 9.474004,18.901268 8.871466,19.414637 8.254847,19.940004 7.465792,20.25 6.5,20.25 v -1.5 c 0.620208,0 1.061653,-0.190004 1.39866,-0.477137 C 8.249746,17.973732 8.527995,17.533258 8.739065,16.981874 9.166289,15.865826 9.25,14.4806 9.25,13.5 Z M 6.5,20.25 C 5.534208,20.25 4.745153,19.940004 4.128535,19.414637 3.525996,18.901268 3.127495,18.216742 2.860066,17.518126 2.330289,16.134174 2.25,14.5194 2.25,13.5 h 1.5 c 0,0.9806 0.083711,2.365826 0.510934,3.481874 0.211071,0.551384 0.48932,0.991858 0.840406,1.290989 C 5.438347,18.559996 5.879792,18.75 6.5,18.75 Z M 2.25,13.5 C 2.25,12.4806 2.330289,10.865825 2.860066,9.481874 3.127495,8.783259 3.525996,8.098733 4.128535,7.585362 4.745153,7.059997 5.534208,6.75 6.5,6.75 v 1.5 C 5.879792,8.25 5.438347,8.440003 5.10134,8.727138 4.750254,9.026267 4.472005,9.466741 4.260934,10.018126 3.833711,11.134175 3.75,12.5194 3.75,13.5 Z" /></g><g
       transform="translate(12,16.426758)"
       id="g24"><path
         id="path26"
         style="fill:#ffffff;fill-opacity:1;fill-rule:nonzero;stroke:none"
         d="m 16.469669,1.042912 c 0.292895,-0.292893 0.767767,-0.292893 1.060662,0 0.292892,0.292894 0.292892,0.767766 0,1.060661 z m -3.136038,5.257359 c -0.292893,0.292893 -0.767767,0.292893 -1.06066,0 -0.292893,-0.292892 -0.292893,-0.767767 0,-1.060659 z m 4.1967,-4.196698 -4.1967,4.196698 -1.06066,-1.060659 4.196698,-4.1967 z M 15.75,11.073242 c 0,4.556314 -3.693686,8.25 -8.25,8.25 v -1.5 c 3.727886,0 6.75,-3.022114 6.75,-6.75 z m -8.25,8.25 c -4.556314,0 -8.25,-3.693686 -8.25,-8.25 h 1.5 c 0,3.727886 3.022114,6.75 6.75,6.75 z m -8.25,-8.25 c 0,-4.556313 3.693686,-8.25 8.25,-8.25 v 1.5 c -3.727886,0 -6.75,3.022114 -6.75,6.75 z m 8.25,-8.25 c 4.556314,0 8.25,3.693687 8.25,8.25 h -1.5 c 0,-3.727886 -3.022114,-6.75 -6.75,-6.75 z" /></g></g></svg>