<svg width="27" height="24" viewBox="0 0 27 24" fill="none" xmlns="http://www.w3.org/2000/svg">
<path fill-rule="evenodd" clip-rule="evenodd" d="M1.82104 0.657258C1.70484 0.192478 1.23385 -0.0900959 0.769074 0.0261103C0.304295 0.142317 0.0217205 0.613298 0.137927 1.07808L1.35451 5.94393L2.48661 10.6675C2.96799 12.6761 3.34689 14.2571 3.79652 15.4853C4.25774 16.7451 4.82333 17.7232 5.73078 18.4732C5.8091 18.5379 5.88888 18.6009 5.97008 18.6619C6.91094 19.3696 7.99389 19.6916 9.32654 19.8465C10.6257 19.9975 12.2514 19.9975 14.3167 19.9975H15.0033C16.7903 19.9975 18.197 19.9975 19.3303 19.8829C20.491 19.7655 21.4461 19.5219 22.3056 18.9838C22.7133 18.7285 23.0921 18.4298 23.4354 18.0928C24.2436 17.2994 24.7232 16.303 25.136 15.0111C25.4396 14.0609 25.7224 12.8983 26.0628 11.4796L26.1473 11.1269C26.3985 10.0791 26.6055 9.21546 26.6854 8.51584C26.7684 7.78972 26.7346 7.09834 26.3721 6.46707C26.2171 6.19708 26.0232 5.95131 25.7968 5.73762C25.2674 5.23801 24.603 5.04394 23.8775 4.95542C23.1785 4.87012 22.2905 4.87014 21.213 4.87017L2.87437 4.87017L1.82104 0.657258ZM4.16092 10.2096L3.29703 6.60509H21.1567C22.3046 6.60509 23.086 6.60662 23.6674 6.67757C24.2345 6.74676 24.467 6.86812 24.6061 6.99939C24.709 7.09652 24.7971 7.20823 24.8676 7.33096C24.9628 7.49682 25.0266 7.75121 24.9617 8.31881C24.9028 8.83453 24.7542 9.49024 24.535 10.4098L16.0156 10.4098C15.5365 10.4098 15.1482 10.7981 15.1482 11.2772C15.1482 11.7563 15.5365 12.1447 16.0156 12.1447L24.1169 12.1447C23.9562 12.8 23.8097 13.3727 23.665 13.8796H19.4855C19.0064 13.8796 18.618 14.268 18.618 14.7471C18.618 15.2262 19.0064 15.6145 19.4855 15.6145H23.0557C22.8093 16.1497 22.5431 16.5375 22.22 16.8548C21.9663 17.1038 21.6863 17.3246 21.3849 17.5133C20.8366 17.8567 20.1741 18.0538 19.1557 18.1568C18.1198 18.2615 16.8006 18.2626 14.9557 18.2626H14.372C12.2394 18.2626 10.7143 18.2612 9.52683 18.1232C8.36131 17.9877 7.61615 17.7291 7.01293 17.2754C6.95291 17.2303 6.89394 17.1838 6.83606 17.1359C6.25425 16.6551 5.82908 15.9907 5.42571 14.8889C5.01474 13.7663 4.65796 12.2835 4.16092 10.2096Z" fill="#344D67"/>
<path d="M11.937 22.7825C11.937 23.4549 11.3919 24 10.7195 24C10.0471 24 9.50202 23.4549 9.50202 22.7825C9.50202 22.1101 10.0471 21.565 10.7195 21.565C11.3919 21.565 11.937 22.1101 11.937 22.7825Z" fill="#344D67"/>
<path d="M19.242 22.7825C19.242 23.4549 18.6969 24 18.0245 24C17.3521 24 16.807 23.4549 16.807 22.7825C16.807 22.1101 17.3521 21.565 18.0245 21.565C18.6969 21.565 19.242 22.1101 19.242 22.7825Z" fill="#344D67"/>
</svg>
